<?xml version="1.0" encoding="UTF-8"?>
<svg version="1.1" xmlns="http://www.w3.org/2000/svg" width="146" height="46">
<path d="M0 0 C48.18 0 96.36 0 146 0 C146 15.18 146 30.36 146 46 C97.82 46 49.64 46 0 46 C0 30.82 0 15.64 0 0 Z " fill="#FCFDFD" transform="translate(0,0)"/>
<path d="M0 0 C0.66 0 1.32 0 2 0 C5 3.46153846 5 3.46153846 5 6 C5.556875 5.67 6.11375 5.34 6.6875 5 C9.30284522 3.8690399 11.1806646 3.84337026 14 4 C14 6.64 14 9.28 14 12 C15.98 12.33 17.96 12.66 20 13 C20.495 14.485 20.495 14.485 21 16 C19.85546875 17.7890625 19.85546875 17.7890625 18.1875 19.625 C17.37345703 20.54152344 17.37345703 20.54152344 16.54296875 21.4765625 C15 23 15 23 13 24 C9.41625473 23.82236702 5.85832015 23.481419 2.28515625 23.15625 C-1.00643515 22.80162204 -1.00643515 22.80162204 -4 24 C-7.75780938 24.58946029 -10.06144337 24.65633331 -13.234375 22.4375 C-15.22768921 20.68451445 -17.14028529 18.8935277 -19 17 C-18.67 15.68 -18.34 14.36 -18 13 C-16.02 12.67 -14.04 12.34 -12 12 C-12 9.36 -12 6.72 -12 4 C-5.25 4.875 -5.25 4.875 -3 6 C-2.690625 5.195625 -2.38125 4.39125 -2.0625 3.5625 C-1 1 -1 1 0 0 Z " fill="#379051" transform="translate(25,9)"/>
<path d="M0 0 C6.875 0.875 6.875 0.875 8 2 C8.15710888 3.43434586 8.27604721 4.87297244 8.375 6.3125 C8.74119795 10.09454444 9.3733387 12.14493336 12 15 C12 15.66 12 16.32 12 17 C12.66 17.33 13.32 17.66 14 18 C9.46946334 19.76801431 5.84615182 20.75198908 1 20 C-1.94077317 17.92750432 -4.482276 15.5635008 -7 13 C-6.67 11.68 -6.34 10.36 -6 9 C-4.02 8.67 -2.04 8.34 0 8 C0 5.36 0 2.72 0 0 Z " fill="#89D954" transform="translate(13,13)"/>
<path d="M0 0 C11.25 -0.40178571 11.25 -0.40178571 15 3 C14.54177532 6.46941546 14.10868317 9.67395049 13 13 C13.59793673 15.35188447 14.25881795 17.68925595 15 20 C13.68 20 12.36 20 11 20 C10.608125 18.865625 10.21625 17.73125 9.8125 16.5625 C8.41389118 12.79660949 8.41389118 12.79660949 5.3125 12.0625 C4.549375 12.041875 3.78625 12.02125 3 12 C3 14.64 3 17.28 3 20 C2.01 20 1.02 20 0 20 C0 13.4 0 6.8 0 0 Z " fill="#106569" transform="translate(48,11)"/>
<path d="M0 0 C2.875 2.25 2.875 2.25 5 5 C5 6.32 5 7.64 5 9 C1.37 9 -2.26 9 -6 9 C-5.67 9.66 -5.34 10.32 -5 11 C-1.80097361 11.08886184 0.92677456 10.91058531 4 10 C2.25 13.875 2.25 13.875 0 15 C-3.54231061 15.38503376 -5.36257342 15.41935959 -8.375 13.4375 C-10.62340519 10.06489221 -10.56783945 7.97487617 -10 4 C-7.27238925 -0.09141613 -4.79563536 -0.88083098 0 0 Z " fill="#196B6F" transform="translate(105,16)"/>
<path d="M0 0 C2 3 2 3 2 8 C-1.3 8 -4.6 8 -8 8 C-7.67 8.66 -7.34 9.32 -7 10 C-2.545 9.505 -2.545 9.505 2 9 C0 13 0 13 -2 14 C-5.54231061 14.38503376 -7.36257342 14.41935959 -10.375 12.4375 C-12.62340519 9.06489221 -12.56783945 6.97487617 -12 3 C-8.85540137 -2.24099771 -5.33719896 -1.29125781 0 0 Z " fill="#1A6B6F" transform="translate(77,17)"/>
<path d="M0 0 C3.4375 0.75 3.4375 0.75 5.4375 2.75 C5.6328125 5.5703125 5.6328125 5.5703125 5.5625 8.875 C5.54445313 9.97070312 5.52640625 11.06640625 5.5078125 12.1953125 C5.48460938 13.03835937 5.46140625 13.88140625 5.4375 14.75 C3.64616022 14.80391993 1.85436101 14.84275571 0.0625 14.875 C-0.93523437 14.89820313 -1.93296875 14.92140625 -2.9609375 14.9453125 C-5.5625 14.75 -5.5625 14.75 -7.5625 12.75 C-7.375 10.25 -7.375 10.25 -6.5625 7.75 C-3.33458445 5.5980563 -2.27849191 5.54913557 1.4375 5.75 C1.4375 4.76 1.4375 3.77 1.4375 2.75 C0.2928125 3.245 0.2928125 3.245 -0.875 3.75 C-3.5625 4.75 -3.5625 4.75 -6.5625 4.75 C-6.5625 3.76 -6.5625 2.77 -6.5625 1.75 C-3.5625 -0.25 -3.5625 -0.25 0 0 Z " fill="#15696C" transform="translate(118.5625,16.25)"/>
<path d="M0 0 C0.66 0 1.32 0 2 0 C4.65265782 3.19879325 5.91854413 5.34835302 6.4375 9.5 C5.96013336 13.31893311 5.04083178 15.74978643 3 19 C2.01 19.66 1.02 20.32 0 21 C-3.49881915 16.73581416 -4.64234249 13.73555439 -4.3984375 8.19140625 C-3.75418003 4.64799015 -2.35770159 2.70442241 0 0 Z " fill="#51C06E" transform="translate(25,9)"/>
<path d="M0 0 C0.33 0.99 0.66 1.98 1 3 C-0.14453125 4.7890625 -0.14453125 4.7890625 -1.8125 6.625 C-2.35519531 7.23601563 -2.89789063 7.84703125 -3.45703125 8.4765625 C-5 10 -5 10 -7 11 C-8.71233688 10.9129796 -10.42175406 10.75902838 -12.125 10.5625 C-13.49011719 10.40974609 -13.49011719 10.40974609 -14.8828125 10.25390625 C-15.58148437 10.17011719 -16.28015625 10.08632813 -17 10 C-15.74916273 6.2474882 -14.07436773 5.76437243 -10.69921875 3.984375 C-8.87964784 3.04813942 -8.87964784 3.04813942 -7.4375 1.25 C-5.1540635 -0.73559696 -2.89370226 -0.19291348 0 0 Z " fill="#28733C" transform="translate(45,22)"/>
<path d="M0 0 C1.37868281 1.62935241 2.71274093 3.29749607 4 5 C6.11660427 6.31165257 6.11660427 6.31165257 8 7 C7.67 8.32 7.34 9.64 7 11 C3.07387404 11.57256004 1.08011914 11.74950876 -2.24609375 9.44140625 C-4.23043203 7.68344524 -6.14261973 5.89115082 -8 4 C-7.625 2.0625 -7.625 2.0625 -7 0 C-4.20824656 -1.39587672 -2.93876905 -0.97958968 0 0 Z " fill="#BEE72C" transform="translate(14,22)"/>
<path d="M0 0 C0.99 0 1.98 0 3 0 C3 5.61 3 11.22 3 17 C5.97 17 8.94 17 12 17 C12 17.99 12 18.98 12 20 C8.04 20 4.08 20 0 20 C0 13.4 0 6.8 0 0 Z " fill="#055E62" transform="translate(82,11)"/>
<path d="M0 0 C0 0.99 0 1.98 0 3 C-0.66 3 -1.32 3 -2 3 C-2 3.66 -2 4.32 -2 5 C-1.34 5 -0.68 5 0 5 C0 5.99 0 6.98 0 8 C-0.99 8 -1.98 8 -3 8 C-3 11.96 -3 15.92 -3 20 C-3.99 20 -4.98 20 -6 20 C-6 16.04 -6 12.08 -6 8 C-6.66 8 -7.32 8 -8 8 C-8 7.01 -8 6.02 -8 5 C-7.34 5 -6.68 5 -6 5 C-6 3.68 -6 2.36 -6 1 C-4 0 -4 0 0 0 Z " fill="#0F6468" transform="translate(134,11)"/>
<path d="M0 0 C0 0.66 0 1.32 0 2 C1.32 2 2.64 2 4 2 C3.690625 2.598125 3.38125 3.19625 3.0625 3.8125 C1.89790296 6.08956772 1.89790296 6.08956772 1 9 C-1.375 9.125 -1.375 9.125 -4 9 C-4.66 8.34 -5.32 7.68 -6 7 C-5.8125 4.5 -5.8125 4.5 -5 2 C-2 0 -2 0 0 0 Z " fill="#247275" transform="translate(117,22)"/>
<path d="M0 0 C0 0.99 0 1.98 0 3 C-1.670625 3.4021875 -1.670625 3.4021875 -3.375 3.8125 C-7.21840951 4.65809019 -7.21840951 4.65809019 -9 8 C-11.5625 8.125 -11.5625 8.125 -14 8 C-14.33 8.33 -14.66 8.66 -15 9 C-16.66617115 9.04063832 -18.33388095 9.042721 -20 9 C-20.33 8.01 -20.66 7.02 -21 6 C-17.37 6 -13.74 6 -10 6 C-10 4.68 -10 3.36 -10 2 C-6.38026598 0.68373308 -3.90432869 0 0 0 Z " fill="#F2F7F7" transform="translate(120,19)"/>
<path d="M0 0 C0 0.99 0 1.98 0 3 C0.33 3.99 0.66 4.98 1 6 C-5.15234375 6.09765625 -5.15234375 6.09765625 -7 6 C-7.33 5.67 -7.66 5.34 -8 5 C-8.33 6.98 -8.66 8.96 -9 11 C-9.33 11 -9.66 11 -10 11 C-10.48275862 4.72413793 -10.48275862 4.72413793 -8.375 1.5625 C-5.397402 -0.39644605 -3.49644963 -0.31785906 0 0 Z " fill="#217074" transform="translate(105,16)"/>
<path d="M0 0 C2.31 0 4.62 0 7 0 C7.38218767 1.65614657 7.71395102 3.32457024 8 5 C7 6 7 6 3.4375 6.0625 C2.303125 6.041875 1.16875 6.02125 0 6 C0 4.02 0 2.04 0 0 Z " fill="#CFE0E1" transform="translate(51,14)"/>
<path d="M0 0 C3.68802044 1.22934015 4.72356973 2.93859378 7 6 C3.33333333 6 -0.33333333 6 -4 6 C-2.25 1.125 -2.25 1.125 0 0 Z " fill="#206F73" transform="translate(69,16)"/>
<path d="M0 0 C1.65 0 3.3 0 5 0 C5.33 0.99 5.66 1.98 6 3 C3.69 3 1.38 3 -1 3 C-0.67 2.01 -0.34 1.02 0 0 Z " fill="#E8F0F0" transform="translate(100,19)"/>
<path d="M0 0 C1.98 0 3.96 0 6 0 C6 0.99 6 1.98 6 3 C4.35 3 2.7 3 1 3 C0.67 2.01 0.34 1.02 0 0 Z " fill="#E7F0F0" transform="translate(99,25)"/>
<path d="M0 0 C2.4375 0.375 2.4375 0.375 5 1 C5.33 1.66 5.66 2.32 6 3 C3.36 3 0.72 3 -2 3 C-1.34 2.01 -0.68 1.02 0 0 Z " fill="#EEF4F4" transform="translate(70,19)"/>
<path d="M0 0 C-0.66 1.32 -1.32 2.64 -2 4 C-3.32 4 -4.64 4 -6 4 C-6 3.01 -6 2.02 -6 1 C-3.92446352 0.4465236 -2.15634036 0 0 0 Z " fill="#EBF2F3" transform="translate(121,24)"/>
</svg>
