<?xml version="1.0" encoding="UTF-8"?>
<svg xmlns="http://www.w3.org/2000/svg" xmlns:xlink="http://www.w3.org/1999/xlink" width="50px" height="50px" viewBox="0 0 50 50" version="1.1">
<g id="surface1">
<path style=" stroke:none;fill-rule:nonzero;fill:rgb(30.980393%,75.294119%,42.745098%);fill-opacity:1;" d="M 24.902344 10.253906 C 25.425781 10.480469 25.78125 10.90625 26.179688 11.304688 C 26.300781 11.429688 26.300781 11.429688 26.429688 11.554688 C 27.039062 12.175781 27.59375 12.808594 28.105469 13.511719 C 28.226562 13.675781 28.347656 13.835938 28.464844 13.996094 C 29.457031 15.320312 30.246094 16.773438 30.957031 18.261719 C 31.015625 18.226562 31.074219 18.1875 31.136719 18.148438 C 33.871094 16.457031 37.234375 15.46875 40.429688 15.234375 C 41.019531 17.527344 41.136719 19.964844 40.941406 22.320312 C 40.929688 22.472656 40.929688 22.472656 40.917969 22.625 C 40.832031 23.566406 40.652344 24.472656 40.429688 25.390625 C 40.535156 25.398438 40.640625 25.402344 40.75 25.414062 C 43.457031 25.632812 47.976562 26.492188 50 28.515625 C 49.964844 28.863281 49.851562 29.140625 49.691406 29.449219 C 49.648438 29.53125 49.605469 29.617188 49.5625 29.699219 C 49.515625 29.789062 49.46875 29.875 49.421875 29.96875 C 49.371094 30.0625 49.324219 30.148438 49.273438 30.246094 C 48.847656 31.039062 48.378906 31.789062 47.851562 32.519531 C 47.804688 32.585938 47.761719 32.648438 47.710938 32.714844 C 47.105469 33.558594 46.472656 34.359375 45.75 35.105469 C 45.648438 35.207031 45.550781 35.316406 45.449219 35.417969 C 43.042969 37.960938 39.882812 39.636719 36.347656 39.773438 C 32.542969 39.867188 28.644531 38.804688 25.382812 36.832031 C 25.105469 36.691406 25.105469 36.691406 24.816406 36.773438 C 24.464844 36.9375 24.121094 37.101562 23.777344 37.28125 C 19.636719 39.382812 14.738281 40.613281 10.191406 39.148438 C 8.257812 38.488281 6.597656 37.40625 5.132812 35.988281 C 5.027344 35.886719 4.925781 35.785156 4.816406 35.6875 C 3.882812 34.804688 3.089844 33.855469 2.34375 32.8125 C 2.296875 32.75 2.253906 32.6875 2.210938 32.625 C 1.527344 31.65625 0.945312 30.636719 0.390625 29.589844 C 0.351562 29.519531 0.3125 29.449219 0.269531 29.378906 C 0.238281 29.308594 0.199219 29.242188 0.160156 29.171875 C 0.128906 29.113281 0.09375 29.050781 0.0625 28.988281 C -0.015625 28.757812 0.00390625 28.644531 0.0976562 28.417969 C 0.242188 28.296875 0.242188 28.296875 0.425781 28.199219 C 0.496094 28.160156 0.570312 28.125 0.640625 28.085938 C 0.757812 28.027344 0.757812 28.027344 0.878906 27.964844 C 0.960938 27.921875 1.042969 27.882812 1.125 27.839844 C 3.722656 26.535156 6.644531 25.511719 9.570312 25.390625 C 9.542969 25.285156 9.519531 25.179688 9.492188 25.066406 C 9.28125 24.152344 9.132812 23.253906 9.058594 22.320312 C 9.050781 22.226562 9.042969 22.132812 9.035156 22.035156 C 8.984375 21.359375 8.972656 20.691406 8.984375 20.019531 C 8.988281 19.945312 8.988281 19.867188 8.988281 19.789062 C 9.058594 16.253906 9.058594 16.253906 9.570312 15.234375 C 12.273438 15.476562 14.945312 16.199219 17.382812 17.382812 C 17.484375 17.433594 17.484375 17.433594 17.585938 17.480469 C 18.636719 17.988281 18.636719 17.988281 19.042969 18.261719 C 19.089844 18.167969 19.132812 18.074219 19.179688 17.980469 C 20.628906 15.003906 22.527344 12.550781 24.902344 10.253906 Z M 24.902344 10.253906 "/>
<path style=" stroke:none;fill-rule:nonzero;fill:rgb(12.54902%,41.960785%,20.392157%);fill-opacity:1;" d="M 40.429688 15.234375 C 41.019531 17.527344 41.136719 19.964844 40.941406 22.320312 C 40.933594 22.417969 40.925781 22.523438 40.917969 22.625 C 40.832031 23.566406 40.652344 24.472656 40.429688 25.390625 C 40.535156 25.398438 40.640625 25.402344 40.75 25.414062 C 43.457031 25.632812 47.976562 26.492188 50 28.515625 C 49.964844 28.863281 49.851562 29.140625 49.691406 29.449219 C 49.648438 29.53125 49.605469 29.617188 49.5625 29.699219 C 49.515625 29.789062 49.46875 29.875 49.421875 29.96875 C 49.371094 30.0625 49.324219 30.148438 49.273438 30.246094 C 48.847656 31.039062 48.378906 31.789062 47.851562 32.519531 C 47.804688 32.585938 47.761719 32.648438 47.710938 32.714844 C 47.105469 33.558594 46.472656 34.359375 45.75 35.105469 C 45.648438 35.207031 45.550781 35.316406 45.449219 35.417969 C 43.042969 37.960938 39.882812 39.636719 36.347656 39.773438 C 32.308594 39.871094 28.472656 38.625 25 36.621094 C 25.335938 36.21875 25.679688 35.839844 26.058594 35.472656 C 26.472656 35.0625 26.84375 34.636719 27.207031 34.183594 C 27.371094 33.972656 27.542969 33.765625 27.710938 33.566406 C 30.539062 30.183594 31.980469 26.285156 31.738281 21.875 C 31.628906 20.808594 31.34375 19.800781 30.945312 18.816406 C 30.859375 18.554688 30.859375 18.554688 30.957031 18.261719 C 33.320312 16.441406 37.472656 15.234375 40.429688 15.234375 Z M 40.429688 15.234375 "/>
<path style=" stroke:none;fill-rule:nonzero;fill:rgb(76.078433%,91.37255%,12.941177%);fill-opacity:1;" d="M 9.667969 25.390625 C 9.710938 25.511719 9.75 25.636719 9.789062 25.757812 C 10.519531 27.917969 11.402344 29.691406 12.988281 31.347656 C 13.039062 31.40625 13.097656 31.464844 13.152344 31.527344 C 16.105469 34.65625 20.875 35.960938 25 36.523438 C 24.734375 36.847656 24.375 37.003906 24.007812 37.183594 C 23.898438 37.234375 23.898438 37.234375 23.796875 37.285156 C 19.5 39.378906 14.605469 40.65625 9.933594 39.058594 C 8.101562 38.394531 6.527344 37.335938 5.132812 35.988281 C 5.027344 35.886719 4.925781 35.785156 4.816406 35.6875 C 3.882812 34.804688 3.089844 33.855469 2.34375 32.8125 C 2.296875 32.75 2.253906 32.6875 2.210938 32.625 C 1.527344 31.65625 0.945312 30.636719 0.390625 29.589844 C 0.351562 29.519531 0.3125 29.449219 0.269531 29.378906 C 0.21875 29.273438 0.21875 29.273438 0.160156 29.171875 C 0.128906 29.113281 0.09375 29.050781 0.0625 28.988281 C -0.015625 28.757812 0.00390625 28.644531 0.0976562 28.417969 C 0.242188 28.296875 0.242188 28.296875 0.425781 28.199219 C 0.496094 28.160156 0.570312 28.125 0.640625 28.085938 C 0.71875 28.046875 0.796875 28.007812 0.878906 27.964844 C 1.003906 27.902344 1.003906 27.902344 1.125 27.839844 C 3.632812 26.582031 6.804688 25.300781 9.667969 25.390625 Z M 9.667969 25.390625 "/>
<path style=" stroke:none;fill-rule:nonzero;fill:rgb(53.725493%,85.490197%,32.156864%);fill-opacity:1;" d="M 9.570312 15.234375 C 12.273438 15.476562 14.945312 16.199219 17.382812 17.382812 C 17.484375 17.429688 17.484375 17.429688 17.585938 17.476562 C 18.730469 18.03125 18.730469 18.03125 19.140625 18.359375 C 19.125 18.414062 19.109375 18.46875 19.089844 18.527344 C 19.007812 18.796875 18.929688 19.066406 18.847656 19.335938 C 18.816406 19.441406 18.78125 19.554688 18.746094 19.664062 C 18.699219 19.832031 18.699219 19.832031 18.644531 20.007812 C 18.617188 20.109375 18.582031 20.21875 18.550781 20.324219 C 18.289062 21.316406 18.226562 22.292969 18.230469 23.316406 C 18.230469 23.378906 18.230469 23.445312 18.230469 23.507812 C 18.234375 24.5 18.300781 25.410156 18.554688 26.367188 C 18.574219 26.453125 18.589844 26.539062 18.609375 26.628906 C 19.246094 29.332031 20.816406 31.769531 22.558594 33.886719 C 22.605469 33.941406 22.652344 34 22.703125 34.058594 C 23.285156 34.761719 23.890625 35.433594 24.542969 36.070312 C 24.664062 36.1875 24.785156 36.304688 24.902344 36.425781 C 24.902344 36.457031 24.902344 36.492188 24.902344 36.523438 C 20.738281 36.242188 16.359375 34.59375 13.28125 31.738281 C 13.230469 31.691406 13.183594 31.652344 13.132812 31.605469 C 10.355469 29.046875 9.171875 25.226562 8.996094 21.546875 C 8.976562 21.035156 8.972656 20.53125 8.984375 20.019531 C 8.988281 19.953125 8.988281 19.890625 8.988281 19.820312 C 9.066406 16.242188 9.066406 16.242188 9.570312 15.234375 Z M 9.570312 15.234375 "/>
<path style=" stroke:none;fill-rule:nonzero;fill:rgb(21.176471%,56.862748%,31.764707%);fill-opacity:1;" d="M 40.429688 15.234375 C 41.578125 19.707031 41.257812 24.933594 38.964844 29.003906 C 38.441406 29.859375 37.800781 30.621094 37.109375 31.347656 C 37.046875 31.414062 36.988281 31.476562 36.925781 31.546875 C 34.539062 34.050781 31.023438 35.347656 27.734375 36.132812 C 27.664062 36.148438 27.589844 36.167969 27.515625 36.183594 C 26.988281 36.3125 26.460938 36.382812 25.921875 36.4375 C 25.84375 36.449219 25.761719 36.457031 25.679688 36.460938 C 25.484375 36.484375 25.289062 36.503906 25.097656 36.523438 C 25.417969 36.136719 25.746094 35.773438 26.105469 35.425781 C 26.5 35.03125 26.855469 34.621094 27.203125 34.183594 C 27.371094 33.972656 27.539062 33.769531 27.710938 33.566406 C 30.539062 30.183594 31.980469 26.285156 31.738281 21.875 C 31.628906 20.808594 31.34375 19.800781 30.945312 18.816406 C 30.859375 18.554688 30.859375 18.554688 30.957031 18.261719 C 33.320312 16.441406 37.472656 15.234375 40.429688 15.234375 Z M 40.429688 15.234375 "/>
</g>
</svg>
